<?xml version="1.0" encoding="utf-8"?>
<!-- Generator: Adobe Illustrator 27.1.1, SVG Export Plug-In . SVG Version: 6.00 Build 0)  -->
<svg version="1.1" id="Layer_1" xmlns="http://www.w3.org/2000/svg" xmlns:xlink="http://www.w3.org/1999/xlink" x="0px" y="0px"
	 viewBox="0 0 80 80" style="enable-background:new 0 0 80 80;" xml:space="preserve">
<g>
	<path d="M43.6,25.5c-0.5-1.8-1.3-3.6-2.6-5c-1.8-1.9-4.3-1.8-6.2,0c-1.2,1.2-2.4,2.3-3.7,3.4c-0.9,0.7-1.8,1.3-2.7,2
		c-0.6,0.4-0.8,1.2-0.5,1.8c0.3,0.6,1,0.9,1.7,0.6c0.4-0.2,0.7-0.4,1.1-0.6c0.3-0.2,0.6-0.4,0.9-0.7c-0.7,3.2-1,6.5-1,9.7
		c0,3.3,0.4,6.5,1.2,9.8c-0.3-0.2-0.4-0.3-0.6-0.4c-1.9-1.3-4-2.5-6.1-3.5c-3-1.3-6.2-2.1-9.5-2c-2.1,0.1-4.3,0-6.4,0H8.7v-7.9h0.5
		c2.3,0,4.7,0,7,0c1.5,0,3.1-0.1,4.5-0.5c1.5-0.4,2.9-0.9,4.4-1.4c0.7-0.3,1-1,0.8-1.7c-0.2-0.6-0.9-1.1-1.6-0.9
		c-0.3,0.1-0.5,0.2-0.8,0.3c-2.4,1-4.8,1.5-7.4,1.5c-2.5,0-5.1,0-7.6,0c-1.3,0-2.2,0.6-2.6,1.8C5.9,31.9,5.8,32,5.5,32
		C3,32.2,1,34.3,1,36.8c0,2.6,1.9,4.8,4.6,5c0.3,0,0.5,0.1,0.7,0.4c0.5,0.8,1.3,1.2,2.3,1.2c0.1,0,0.3,0,0.5,0c0,0.2,0,0.4,0,0.6
		c0,0.6,0,1.2,0.1,1.7c0.1,0.7,0.6,1,1.2,1.1c0.7,0,1.1-0.3,1.3-0.9c0.1-0.3,0.1-0.5,0.1-0.8c0-0.6,0.1-1.1,0.1-1.7h3.7
		c0,0.1,0,0.1,0,0.2c-0.4,1.3-0.4,2.5,0,3.8c0.1,0.5,0.1,1.1,0.1,1.6c0,0.7-0.2,1.3-0.1,2c0.2,1.2,0.6,2.5,1,3.7
		c0.1,0.3,0.1,0.4-0.2,0.6c-0.8,0.5-1.6,1.1-2.3,1.6c-0.4,0.2-0.7,0.5-1.1,0.7c-0.1-0.4-0.3-0.6-0.4-1c-0.6-1.9-0.7-3.8-0.8-5.8
		c0-0.9-0.6-1.5-1.4-1.5c-0.8,0-1.4,0.7-1.3,1.6c0.1,1.5,0.2,3.1,0.5,4.6c0.2,1.3,0.5,2.6,1.2,3.8c0.9,1.4,2.3,1.7,3.6,0.7
		c1.3-0.8,2.5-1.7,3.7-2.5c0.8-0.6,1.3-1.3,1.4-2.3c0.1-1-0.2-1.9-0.8-2.7c-0.5-0.7-0.7-1.5-0.4-2.3c0.4-1.2,0.3-2.3,0-3.5
		c-0.3-1-0.1-2.1,0.3-3.1c2,0.3,3.9,0.9,5.7,1.7c3.8,1.6,7.1,4.1,10.1,6.9c0.4,0.4,0.7,0.8,1.2,1c2.1,1.4,4.4,1.1,6-0.9
		c1-1.2,1.6-2.6,2-4c1.2-3.6,1.5-7.3,1.6-11C45.1,33.2,44.7,29.3,43.6,25.5z M5.8,38.9c-1.1,0.1-2-0.9-2-2c0-1.2,0.9-2.2,2-2.2V38.9
		z M40.9,47.1c-0.4,1.1-0.9,2.2-1.5,3.2c-1,1.5-1.6,1.4-2.7,0.1c-1.1-1.3-1.7-2.8-2.1-4.4c-1.1-4-1.2-8.1-1-12.3
		c0.2-2.6,0.5-5.1,1.4-7.5c0.4-1,0.9-2,1.4-2.9c0.3-0.5,0.8-0.8,1.3-1.2c0.3-0.2,0.6-0.2,0.8,0c0.4,0.3,0.8,0.7,1.1,1.1
		c1,1.5,1.5,3.1,1.9,4.9c0.7,2.8,0.9,5.7,1,8.7C42.3,40.2,42,43.7,40.9,47.1z"/>
	<path d="M49.9,46.1c0.3,1.2,0.6,2.5,1,3.7c0.5,1.5,0.4,2.9-0.3,4.3c-0.3,0.8-0.5,1.6-0.8,2.4c-0.2,0.7-0.7,1.1-1.4,1.1
		c-0.7,0-1.2-0.5-1.3-1.2c0-0.5,0-1.1,0.2-1.6c0.3-0.9,0.6-1.7,1-2.6c0.2-0.4,0.2-0.7,0-1.1c-0.6-2.2-1.2-4.3-1.7-6.5
		c-0.4-1.3,0.5-2.2,1.9-1.9c2.2,0.6,4.3,1.2,6.5,1.8c0.4,0.1,0.8,0.1,1.2-0.1c9.5-4.2,20.2,1.1,22.4,11.3c1.8,7.8-2.8,16-10.4,18.6
		c-8.8,3-18.1-1.8-20.8-10.7c-0.2-0.6-0.3-1.2-0.4-1.7c-0.1-0.7,0.3-1.4,1-1.6c0.8-0.2,1.5,0.3,1.7,1c0.3,1.4,0.7,2.8,1.4,4
		c2.6,4.8,6.7,7.1,12.2,7c3.8-0.1,7.1-1.6,9.6-4.5c2.2-2.5,3.2-5.5,3.2-8.9c0-6.4-4.7-11.9-11-13c-2.6-0.4-5.2-0.2-7.7,0.9
		c-1.2,0.5-2.3,0.6-3.5,0.3c-1.3-0.4-2.6-0.7-3.9-1.1C50,46.1,50,46.1,49.9,46.1z"/>
	<path d="M50.2,33.3c1.4-0.4,2.8-0.7,4.2-1.1c1.1-0.3,2.1-0.2,3.2,0.2c7.4,3.2,15.7-0.7,17.9-8.4c0.9-3.4,0.5-6.7-1.2-9.8
		c-0.2-0.4-0.4-0.8-0.3-1.3c0.1-0.5,0.6-1,1.1-1c0.6-0.1,1.1,0.1,1.4,0.7c1.1,1.9,1.8,3.9,2.1,6c1.1,8.6-5.3,16.3-13.5,17.6
		c-3.2,0.5-6.2,0.1-9.2-1.2c-0.3-0.1-0.6-0.2-0.9-0.1c-2.2,0.6-4.3,1.1-6.5,1.7c-1,0.3-1.9-0.6-1.7-1.7c0.6-2.1,1.1-4.3,1.7-6.4
		c0.1-0.3,0-0.6-0.1-0.9c-2.6-6.5-1.8-12.4,2.9-17.6C54.7,6.3,59,4.5,64,4.8c3.3,0.2,6.1,1.5,8.7,3.4c0.6,0.5,0.7,1.3,0.3,1.9
		c-0.5,0.6-1.3,0.7-2,0.2c-1.5-1.2-3.2-2-5-2.4c-7.2-1.8-14.6,3-15.8,10.3C49.6,21,49.9,23.5,51,26c0.5,1.1,0.6,2.1,0.2,3.2
		C50.9,30.5,50.6,31.9,50.2,33.3z"/>
	<path d="M69.1,54.6c-0.5,0-1,0-1.5,0c0.1-1,0.3-1.8,0.4-2.7c0.3-1.6-0.5-3.2-1.9-3.9c-1.4-0.7-2.7-0.3-3.3,1.2
		c-0.3,0.6-0.4,1.3-0.6,1.9c-0.2,0.7-0.5,1.3-0.7,1.9c-0.4,0.8-1.2,1.2-1.9,1.6c-0.2,0.1-0.6-0.1-1-0.1c-0.8,0-1.7-0.1-2.5,0
		c-1.1,0.1-2,1-2,2.1c0,3,0,6,0,9.1c0,1.1,0.8,2,1.9,2.1c0.8,0.1,1.6,0.1,2.4,0c0.5,0,1-0.3,1.4-0.5c0.2-0.1,0.3-0.1,0.5,0
		c0.9,0.4,1.8,0.7,2.7,0.7c1.6,0,3.2,0,4.8,0c1.7,0,2.9-1,3.3-2.7c0.4-2.2,0.8-4.4,1.3-6.7C72.6,56.4,71.2,54.7,69.1,54.6z M57.6,65
		h-0.8v-7.8h0.8V65z M69.4,58.1c-0.4,2.2-0.8,4.3-1.2,6.5c-0.1,0.4-0.3,0.6-0.7,0.6c-1.5,0-3,0-4.4,0c-0.9,0-1.7-0.3-2.4-0.8
		c-0.1-0.1-0.2-0.3-0.2-0.4c0-2.1,0-4.2,0-6.2c0-0.1,0.1-0.3,0.3-0.4c2-1.1,3.3-2.7,3.9-4.9c0.1-0.5,0.3-1,0.4-1.4c0,0,0.1,0,0.1,0
		c0,0.2,0,0.5,0,0.7c-0.2,1.3-0.4,2.6-0.6,3.8c-0.2,1.1,0.4,1.8,1.4,1.8c1,0.1,1.9,0.1,2.9,0.1C69.4,57.4,69.5,57.6,69.4,58.1z"/>
	<path d="M70.8,23.8c-1.2-1.2-3.1-1.5-4.5-0.6c-0.7,0.4-1.2,0.4-1.8,0c-0.1,0-0.2-0.1-0.2-0.1c-1-0.5-2-1-2.9-1.4v-2.2
		c1.3-0.6,2.6-1.3,3.9-1.9c0.1,0,0.3,0,0.4,0.1c0.9,0.7,1.9,0.9,3,0.7c2-0.3,3.4-2.2,3.2-4.1c-0.2-2.1-2-3.6-4-3.5
		c-2,0.1-3.6,1.7-3.6,3.8c0,0.3-0.1,0.4-0.4,0.6c-1.3,0.6-2.7,1.3-4,2c-0.2,0.1-0.4,0.1-0.6,0c-1.7-0.8-3.5-0.3-4.6,1.1
		c-1.1,1.4-1.1,3.4,0,4.8c1.1,1.4,3,1.8,4.6,1.1c0.2-0.1,0.4-0.1,0.6,0c1.2,0.6,2.3,1.2,3.5,1.7c0.6,0.3,1,0.5,0.9,1.3
		c0,0,0,0.1,0,0.1c0.3,1.7,1.6,2.9,3.3,3.2c1.6,0.2,3.2-0.7,3.9-2.1C72.3,26.8,72,24.9,70.8,23.8z M68.1,13.6c0.6,0,1,0.5,1,1
		c0,0.6-0.4,1-1,1.1c-0.6,0-1.1-0.4-1.1-1C67.1,14.1,67.5,13.6,68.1,13.6z M57.7,21.7c-0.6,0-1-0.5-1-1.1c0-0.6,0.5-1,1-1
		c0.6,0,1,0.5,1,1.1C58.7,21.2,58.2,21.7,57.7,21.7z M68.1,27.6c-0.6,0-1-0.5-1-1.1c0-0.6,0.5-1,1.1-1c0.6,0,1,0.5,1,1.1
		C69.1,27.2,68.6,27.7,68.1,27.6z"/>
	<path d="M40.9,36.6c-0.1,2.1-1,3.7-2.7,4.8c-0.7,0.5-1.6,0.3-2-0.4c-0.4-0.7-0.2-1.5,0.5-1.9c1.8-1.1,1.8-3.7,0.1-4.9
		c-0.4-0.3-0.8-0.6-0.8-1.2c0-0.6,0.2-1,0.6-1.3c0.5-0.3,1-0.3,1.5,0C39.9,32.9,40.8,34.5,40.9,36.6z"/>
</g>
</svg>
