<svg width="86" height="100" viewBox="0 0 86 100" fill="none" xmlns="http://www.w3.org/2000/svg">
<path d="M85.6042 70.0094L42.9994 93.043L0.394533 70.0094L21.6407 59.1987C21.6407 59.1987 20.0729 62.3154 18.9126 65.8529C18.9126 70.8803 30.7898 76.9342 43.0021 76.9342C55.2143 76.9342 67.0916 70.8803 67.0916 65.8529C66.167 62.3771 64.3634 59.1987 64.3634 59.1987L85.6096 70.0094H85.6042ZM63.2191 56.2053C61.8765 51.9282 60.5848 47.635 59.344 43.3284C54.3299 45.9306 48.7799 47.7556 42.9967 47.7556C37.2135 47.7556 31.6661 45.9279 26.6494 43.3284C25.4086 47.6323 24.1169 51.9255 22.7743 56.2053C28.9595 59.3675 35.836 61.5088 42.994 61.5061C50.1547 61.5061 57.0286 59.3675 63.2138 56.2053H63.2191ZM55.6056 33.1663C54.4586 28.8329 53.3652 24.9176 52.3227 20.5601C49.4445 22.1305 46.2849 22.9961 42.9994 22.9961C39.7138 22.9961 36.5543 22.1305 33.6761 20.5601C32.6336 24.9149 31.5375 28.8302 30.3932 33.1663C34.2764 35.2003 38.5561 36.3178 42.9994 36.3152C47.4426 36.3152 51.7224 35.1976 55.6056 33.1663ZM46.6655 1.50074C46.5368 0.664612 44.9477 0 42.9994 0C41.0511 0 39.4646 0.661932 39.3333 1.49806C38.5722 4.65764 37.7709 7.44205 36.9294 11.1242C38.8 12.1479 40.8555 12.7161 42.9967 12.7161C45.1406 12.7161 47.1934 12.1479 49.064 11.1242C48.2252 7.44473 47.4239 4.65764 46.6601 1.50074H46.6655ZM42.9994 95.3933L0.164062 72.0354V76.6421L42.9994 100L85.8347 76.6421V72.0354L42.9994 95.3933Z" fill="#FC8A31"/>
</svg>
