<?xml version="1.0" encoding="utf-8"?>
<!-- Generator: Adobe Illustrator 27.1.1, SVG Export Plug-In . SVG Version: 6.00 Build 0)  -->
<svg version="1.1" id="Layer_1" xmlns="http://www.w3.org/2000/svg" xmlns:xlink="http://www.w3.org/1999/xlink" x="0px" y="0px"
	 viewBox="0 0 80 80" style="enable-background:new 0 0 80 80;" xml:space="preserve">
<g>
	<path d="M40,3.7c9.7,0,19.4,0,29.1,0c5,0,9,3.5,9.8,8.4c0.1,0.5,0.1,1.1,0.1,1.6c0,15.4,0,30.9,0,46.3c0,5-3.2,8.9-8,9.8
		C70.4,70,69.8,70,69.2,70c-1.1,0-1.9-0.8-1.9-1.9c0-1.1,0.8-1.9,1.9-2c1.4,0,2.7-0.4,3.8-1.4c1.4-1.2,2.1-2.7,2.1-4.5
		c0-15.6,0-31.3,0-46.9c0-3.3-2.6-5.8-6-5.8c-6.6,0-13.2,0-19.7,0c-12.8,0-25.6,0-38.4,0c-2.7,0-4.9,1.5-5.7,3.9
		C5,12.2,4.9,13,4.9,13.7c0,15,0,30,0,45c0,0.9,0,1.9,0.1,2.8c0.6,2.8,2.9,4.6,5.9,4.6c6.5,0,13,0,19.5,0c1.1,0,2.1,0,3.2,0
		c1.2,0,2,0.8,2,1.9c0,1.1-0.8,1.9-2,1.9c-7.6,0-15.2,0-22.8,0c-5,0-8.9-3.5-9.7-8.4C1,61.1,1,60.6,1,60c0-15.4,0-30.9,0-46.3
		c0-5,3.3-8.9,8.1-9.8c0.6-0.1,1.3-0.1,1.9-0.1C20.7,3.7,30.3,3.7,40,3.7z"/>
	<path d="M67.4,59.2c-2.1-1.8-4.1-3.7-6.2-5.5c-4.6-4.1-9.3-8.2-13.9-12.4c-0.6-0.6-1.4-0.7-2.2-0.4c-0.8,0.3-1.2,1-1.2,1.8
		c0,0.5-0.1,1.1-0.1,1.6c-0.2,4-0.4,7.9-0.7,11.9c-0.3,4.5-0.5,8.9-0.8,13.4c-0.1,0.9,0.2,1.6,1.1,2.1c0.8,0.4,1.6,0.2,2.3-0.4
		c1.8-1.4,3.5-2.9,5.3-4.3c0.7-0.6,1.4-1.1,2.1-1.7c0.1,0.2,0.1,0.3,0.2,0.5c1.3,3,2.5,6,3.8,9.1c0.1,0.3,0.3,0.7,0.6,1
		c0.6,0.6,1.7,0.7,2.4,0.2c0.8-0.5,1.1-1.5,0.7-2.3c-0.6-1.4-1.2-2.9-1.8-4.3c-0.8-1.8-1.5-3.6-2.3-5.5c0.2,0,0.3-0.1,0.5-0.1
		c3-0.3,6-0.6,8.9-0.9c0.9-0.1,1.6-0.4,1.9-1.4C68.4,60.5,68.1,59.8,67.4,59.2z M57.6,59.8c-1.3,0.1-2.5,0.2-3.8,0.4
		c-0.4,0.1-0.9,0.3-1.2,0.6c-2,1.6-3.9,3.2-6,4.8c0.4-6.3,0.7-12.5,1.1-18.8c4.7,4.2,9.3,8.3,14.1,12.5
		C60.2,59.5,58.9,59.6,57.6,59.8z"/>
	<path d="M47.3,35.1c0.1-0.3,0.2-0.6,0.3-0.9c1.2-2.3,2.4-4.6,3.6-6.9c0.5-1,1.7-1.4,2.6-0.9c1,0.5,1.3,1.6,0.8,2.7
		c-1.2,2.3-2.4,4.6-3.6,7c-0.5,0.9-1.3,1.2-2.2,1C48,36.8,47.4,36,47.3,35.1z"/>
	<path d="M30.4,50.7c0-0.7,0.3-1.3,0.9-1.7c2.2-1.4,4.5-2.9,6.7-4.3c0.9-0.6,2.1-0.3,2.6,0.6c0.6,0.9,0.4,2.1-0.6,2.7
		c-2.2,1.4-4.5,2.9-6.7,4.3c-0.6,0.4-1.3,0.4-2,0C30.7,52,30.4,51.4,30.4,50.7z"/>
	<path d="M30.8,35.4c0.3,0.1,0.8,0.2,1.3,0.4c2.2,0.7,4.4,1.4,6.6,2.1c1.3,0.4,1.8,1.8,1.1,2.9c-0.5,0.7-1.3,1.1-2.2,0.8
		C35,40.8,32.5,40,30,39.2c-1-0.3-1.5-1.2-1.3-2.2C28.8,36.1,29.7,35.4,30.8,35.4z"/>
	<path d="M61.1,36.8c1,0,1.8,0.8,2,1.8c0.1,0.9-0.5,1.8-1.4,2.1c-1.4,0.4-2.9,0.7-4.3,1c-1.2,0.3-2.4,0.5-3.6,0.8
		c-1,0.2-2-0.5-2.2-1.4c-0.2-1,0.3-2.1,1.3-2.3c2.7-0.6,5.3-1.2,8-1.8C61,36.8,61.1,36.8,61.1,36.8z"/>
	<path d="M44.6,34.8c-0.1,0.9-0.7,1.7-1.5,1.9c-1,0.2-1.8-0.2-2.2-1.2c-0.7-1.7-1.4-3.4-2.1-5.1c-0.3-0.7-0.6-1.4-0.9-2.1
		c-0.4-1.1,0-2.2,1-2.6c1-0.4,2.1,0,2.6,1.1c1,2.4,2,4.8,3,7.2C44.5,34.3,44.6,34.6,44.6,34.8z"/>
	<path d="M12.7,18.4c-1.6,0-3-1.4-3-2.9c0-1.6,1.4-2.9,2.9-2.9c1.6,0,3,1.3,3,2.9C15.6,17,14.3,18.3,12.7,18.4z"/>
	<path d="M32.2,18.4c-1.6,0-2.9-1.3-2.9-2.9c0-1.6,1.4-2.9,2.9-2.9c1.6,0,3,1.4,2.9,3C35.1,17,33.8,18.4,32.2,18.4z"/>
	<path d="M25.4,15.4c0,1.6-1.3,2.9-2.9,2.9c-1.6,0-2.9-1.3-2.9-2.9c0-1.6,1.3-2.9,2.9-2.9C24,12.5,25.4,13.8,25.4,15.4z"/>
</g>
</svg>
