<?xml version="1.0" encoding="utf-8"?>
<!-- Generator: Adobe Illustrator 27.1.1, SVG Export Plug-In . SVG Version: 6.00 Build 0)  -->
<svg version="1.1" id="Layer_1" xmlns="http://www.w3.org/2000/svg" xmlns:xlink="http://www.w3.org/1999/xlink" x="0px" y="0px"
	 viewBox="0 0 80 80" style="enable-background:new 0 0 80 80;" xml:space="preserve">
<g>
	<path d="M65.6,60.7c-1.5-1.2-2.9-2.7-5.1-2.1c-2.3,0.7-3.7-0.6-5-2.1c-0.1-0.1-0.2-0.2-0.3-0.3c-0.8-0.6-0.6-1,0-1.7
		c4.1-5.2,4.8-11.1,3.3-17.4c-0.3-1.1-1-1.1-1.7-0.9c-0.6,0.2-1.1,0.6-0.8,1.6c0.8,2.8,0.9,5.6,0.3,8.4c-1.8,9.1-11.1,14.8-20,13
		c-6.6-1.3-12.8-7.7-13.4-15c0-1.1,0-2.2,0-3.2c0.1-0.5,0-1.1,0.2-1.6c2-7.4,6.4-12.2,14.3-13.4c4.6-0.7,8.7,0.5,12.4,3.1
		c0.8,0.5,1.5,0.9,2.1,0.2c0.7-0.8,0.2-1.7-0.5-2.2c-2.9-2-6-3.5-9.6-3.7c-1.4-0.5-2.9-0.5-4.3,0c-8.6,0.4-16.3,8.3-17.1,16.9
		c0,1.5,0,3,0,4.5c-0.1,0.9,0.2,1.8,0.5,2.6c1.1,4.4,3.7,7.9,7.2,10.7c2.8,2.2,6.1,3.7,9.8,3.9c1.2,0,2.4,0,3.6,0
		c3.1-0.3,5.9-1.5,8.6-2.9c1-0.5,1.6-2,2.6-1.6c1,0.4,1.7,1.6,2.6,2.4c0.7,0.6,0.8,1.1,0.5,1.9c-0.6,1.6-0.6,3.1,0.5,4.5
		c1.2,1.6,2.4,3.1,3.7,4.6c2.5,2.8,4.5,6.1,7.8,8.1c0.9,0,1.7,0,2.6,0c1.6-0.7,3-1.7,4.2-3c1.9-2.1,1.9-5.7-0.1-7.5
		C71.7,65.7,68.7,63.2,65.6,60.7z"/>
	<path d="M79,6.6C79,6.6,79,6.6,79,6.6l0-0.3c-0.5-2.9-2.3-4.6-5.2-5.2h-0.3c0,0,0,0,0,0C51.2,1,28.8,1,6.5,1c0,0,0,0,0,0H5.9
		C3.1,1.6,1.5,3.2,1,5.9v0.7c0,0,0,0,0,0c0,18.8,0,37.7,0,56.5c0,0,0,0,0,0v0.6c1.1,2.4,2.6,4.4,5.5,4.8c0,0,0,0,0,0c0,0,0,0,0,0
		c0.2,0,0.4,0.1,0.6,0.1c14.9,0,29.8,0,44.7,0c0.4,0,0.9,0.2,1.2-0.3c0,0,0,0,0,0c1-0.7,1-1.3,0-2c-0.5-0.6-1.1-0.3-1.7-0.3
		c-4.8,0-9.5,0-14.3,0C27,66,16.9,66,6.9,66c0,0,0,0,0,0c0,0,0,0,0,0c-1.8-0.4-2.9-1.5-3.3-3.3c0,0,0,0,0,0c0,0,0,0,0,0
		c0-0.6,0.1-1.2,0.1-1.8c0-15.4,0-30.7,0-46.1c0-3.4,0-3.4,3.4-3.4c22.6,0,45.2,0,67.7,0c1.3,0,1.7,0.3,1.7,1.7
		c-0.1,8,0,15.9,0,23.9c0,8.6,0,17.2,0,25.8c0,0,0,0,0,0c0,0,0,0,0,0c-0.2,0.5-0.3,1.1-0.7,1.5c-0.6,0.8-0.3,1.5,0.4,1.9
		c0.8,0.5,1.4-0.1,1.8-0.7c0.4-0.5,0.4-1.3,1-1.7v-0.6c0,0,0,0,0,0c0,0,0,0,0,0C79,44.2,79,25.4,79,6.6z M76.4,6.9
		c0.3,1.5-0.1,2-1.8,2c-4.2-0.1-8.3,0-12.5,0c-4.2,0-4.1,0-3.9-4.2c0-0.8,0.2-1,1-1c4.6,0,9.3,0,13.9,0.1
		C74.8,4.1,75.9,5.2,76.4,6.9z"/>
	<path d="M44.4,41.4c-0.6,0.6-0.9,0.4-1.4-0.1c-1.4-1.4-2.8-2.8-4.2-4.2c-0.9-0.9-1.8-0.9-2.7-0.1c-2.5,2.4-4.9,4.9-7.4,7.3
		c-0.4,0.4-0.5,0.8-0.4,1.3c0.2,0.6,0.7,0.6,1.2,0.6c0.7,0.1,1.2-0.3,1.7-0.8c1.7-1.8,3.5-3.5,5.3-5.3c0.7-0.7,1.2-0.9,1.9,0
		c1.1,1.3,2.4,2.3,3.5,3.6c1.5,1.8,2.7,1.5,4.2-0.2c2.3-2.6,4.7-5.2,7.1-7.7c3.7-3.8,7.5-7.6,10.9-11.7c1-0.1,0.6,0.7,0.6,1.1
		c0.2,1.2-0.3,2.6,0.3,3.8c0.7,1.2,1.3,0.5,2,0c0.6-0.8,0.3-1.7,0.3-2.5c-0.1-2.1,0.4-4.3-0.3-6.3c0-0.4-0.2-0.6-0.6-0.6
		c-0.2-0.4-0.5-0.3-0.8-0.3c-2.5,0-5.1,0-7.6,0.1c-1.4,1.1-1.4,1.4,0,2.5c1.6,0,3.2,0,4.9,0.1c-2.2,2.8-4.8,5.2-7.2,7.8
		C51.8,33.6,48.2,37.5,44.4,41.4z"/>
</g>
</svg>
