<?xml version="1.0" encoding="utf-8"?>
<!-- Generator: Adobe Illustrator 27.1.1, SVG Export Plug-In . SVG Version: 6.00 Build 0)  -->
<svg version="1.1" id="Layer_1" xmlns="http://www.w3.org/2000/svg" xmlns:xlink="http://www.w3.org/1999/xlink" x="0px" y="0px"
	 viewBox="0 0 50 35.3" style="enable-background:new 0 0 50 35.3;" xml:space="preserve">
<g>
	<path d="M49.9,22.7c-0.7-4.1-2.9-7.1-6.7-8.7c-1.1-0.5-2.4-0.7-3.6-1c-0.1-0.7,0-1.8,0.3-3c0.5-1.8,1.3-3.4,2.4-4.9
		c0.4-0.5,0.3-0.8-0.1-1.3c-1.1-1.1-2.3-2.3-3.4-3.4c-0.5-0.5-0.9-0.5-1.5,0c-2.6,2.4-4.6,5.1-6.2,8.2c-1.8,3.5-2.9,7.2-3.2,11.1
		c-0.2,2-0.2,4,0.2,6c0.4,2.5,1.5,4.8,3.4,6.5c2.6,2.5,5.7,3.4,9.2,2.8c4.1-0.7,6.9-3,8.5-6.9c0.4-1,0.5-2.1,0.8-3.1v-2
		C50,23.1,49.9,22.9,49.9,22.7z M42,33.2c-4.3,1.6-9.2-0.4-11.3-4.5c-0.8-1.6-1.2-3.2-1.3-5c-0.4-7.1,1.8-13.4,6.1-19
		c0.8-1,1.6-1.9,2.4-2.8c1,1,1.9,1.8,2.8,2.7c-0.6,1.1-1.2,2.2-1.7,3.3c-0.7,1.6-1.1,3.3-1,5.1c0,0.1,0,0.2,0,0.2
		c0.1,1.2,0.3,1.4,1.5,1.5c3.8,0.1,7.5,3.1,8.5,6.8C49.4,26.5,46.9,31.4,42,33.2z"/>
	<path d="M14.4,13.6c-0.8-0.3-1.7-0.4-2.7-0.6c0.1-0.8,0.2-1.7,0.4-2.6c0.4-1.9,1.3-3.6,2.4-5.2c0.4-0.6,0.4-0.9-0.1-1.4
		c-1.1-1.1-2.2-2.2-3.3-3.3c-0.6-0.6-0.9-0.6-1.5,0c-2,1.8-3.7,3.9-5.1,6.2c-2,3.2-3.3,6.7-3.9,10.4c-0.2,1.2-0.3,2.4-0.5,3.6v2.8
		c0,0.2,0.1,0.3,0.1,0.5c0.1,1.9,0.6,3.7,1.5,5.5c2.2,4.3,7.2,6.7,11.9,5.6c4.6-1,7.9-4.5,8.6-9.1C23,20.6,19.7,15.2,14.4,13.6z
		 M20.6,25.7c-0.7,4-3.6,7-7.5,7.8C9,34.4,4.8,32.4,2.9,28.6c-1.2-2.4-1.4-5-1.3-7.6C1.8,14.9,4,9.5,7.7,4.7c0.8-1,1.6-1.9,2.4-2.8
		c1,0.9,1.9,1.8,2.8,2.7c-0.5,0.9-1,1.7-1.4,2.6C10.7,9,10.1,11,10.3,13c0,0.1,0,0.3,0,0.4c0.2,1,0.3,1.2,1.4,1.2
		C17.2,14.9,21.5,20.2,20.6,25.7z"/>
</g>
</svg>
