<svg xmlns="http://www.w3.org/2000/svg" xmlns:xlink="http://www.w3.org/1999/xlink" viewBox="0 0 818.6 190.4">
<g>
	<path fill="#fc8a31" d="M357.3,148.8c0-10.4,0-20.4,0-30.3c0-9.8,0.1-19.7,0-29.5c-0.2-12.9-9.4-22-22.1-22.1c-12.8,0-22,9.1-22.1,22
		c-0.1,18-0.3,36,0.1,54c0.1,5.3-1.6,6.6-6.5,6.2c-5.8-0.4-11.6-0.1-18-0.1c0-2.5,0-4.5,0-6.4c0-17.5,0.1-35,0-52.5
		c-0.2-18.5-18-29.2-33.5-20.2c-7.4,4.3-11,10.9-11,19.5c0,17.8,0,35.7,0,53.5c0,1.8,0,3.6,0,5.8c-8.1,0-15.8,0-23.6,0
		c-0.2-0.9-0.5-1.5-0.5-2.1c0-20.5-0.8-41,0.4-61.5c1.1-19.1,12.2-32.6,30-39.4c16.8-6.4,32.5-3.3,46.1,8.6c3.1,2.7,4.9,3.2,8.3,0.2
		c13.3-11.8,28.8-15.1,45.6-9.1c17.3,6.3,29,18.9,30.5,37.3c1.7,21.4,0.6,42.9,0.7,64.4c0,0.5-0.3,0.9-0.6,1.6
		C373.4,148.8,365.8,148.8,357.3,148.8z"/>
	<path fill="#fc8a31" d="M125.2,104.9c3,10,9.4,15.5,18.2,18.5c8.3,2.8,16.4,1.7,24.1-2.6c1.4-0.8,3-1.6,4.6-1.6c9-0.2,18-0.1,27.8-0.1
		c-3.1,7.4-7.7,12.8-13.3,17.4c-19.4,16-46.6,16.7-65.6,1.9c-20.6-16-27.1-41.6-16.5-65.2c14.6-32.5,58.3-40.9,84.1-16.2
		c12.3,11.7,18,26,17.1,43c-0.2,3.9-1.6,5-5.4,5c-23-0.2-46-0.1-68.9-0.1C129.4,104.9,127.6,104.9,125.2,104.9z M179.5,87.1
		C177,74.3,163.5,65.5,149,67c-11.7,1.2-23.3,11.3-23.1,20.1C143.7,87.1,161.5,87.1,179.5,87.1z"/>
	<path fill="#fc8a31" d="M84.7,74c-6.8,0-13.6,0.1-20.4-0.1c-1.1,0-2.6-0.9-3-1.8c-2.5-5.3-7-7.3-12.3-8.2c-6.6-1.1-13-0.7-18.9,2.6
		c-6.2,3.4-6.9,11.5-0.7,15c4.7,2.6,10.1,4.1,15.4,5.5c7.7,2,15.8,2.7,23.4,5.1c15.8,5,23.2,20.7,17.6,36.3
		c-8.1,22.1-43.2,24.1-61.6,17.2c-12.6-4.7-22.2-14-24-27.7c6.3,0,12.7-0.1,19-0.1c1,0,1.9,0,2.9,0.3c2.6,0.8,3.3,4.4,5.2,6.1
		c7.1,6.5,20.2,8.2,28.8,5.5c6-1.9,10.9-7.2,9.6-13.7c-0.8-4-5.6-7.2-9.3-8.3c-5.7-1.6-11.8-2-17.6-3.6c-7.8-2.1-16-3.9-23.1-7.6
		c-18-9.4-19.2-32.5-2.8-44.6c17.2-12.7,45-12,61.7,1.5C80.2,58.1,84.4,66.2,84.7,74z"/>
	<path fill="#000000" d="M401.5,160.1c9.9,0,19-0.1,28.2,0.1c1.8,0,3.8,1.1,5.5,2c16.3,8.9,36.8,0.3,41.7-17.4c0.2-0.8,0.3-1.6,0.5-3.2
		c-2,0.9-3.5,1.5-4.9,2.1c-20.2,9-39.5,7.3-56.7-6.6c-16.8-13.6-23.4-31.9-18.5-53.1c5-21.8,19.3-35.5,41-40.5
		c30.9-7.1,62.1,16.1,63.8,47.8c0.9,17.1,0.8,34.3-0.1,51.4c-1.2,22.5-19.7,41.9-42.9,46.6c-22,4.5-46.5-7.1-56.6-26.8
		C402.2,162,402,161.4,401.5,160.1z M449.6,66.9c-15.8-0.3-29.1,12.5-29.4,28.4c-0.3,15.8,12.4,29,28.4,29.4
		c15.7,0.4,29-12.4,29.4-28.4C478.5,80.7,465.5,67.2,449.6,66.9z"/>
	<path fill="#000000" d="M516.7,42.6c8,0,15.8,0,24.1,0c0.1,1.7,0.2,3.5,0.2,5.2c0,17.8,0,35.6,0,53.4c0,13.5,9.4,23.3,22,23.4
		c12.6,0,22.2-9.9,22.2-23.3c0.1-17.6,0-35.3,0-52.9c0-1.8,0-3.6,0-5.8c8.3,0,16.1,0,24.3,0c0.1,1.3,0.3,2.4,0.3,3.6
		c0,18.8,0.2,37.6-0.1,56.4c-0.3,22.9-17,42.4-39,46c-22.4,3.7-44.3-9.3-51.6-30.9c-1.5-4.5-2.5-9.4-2.6-14.1
		c-0.3-19.3-0.2-38.6-0.2-57.9C516.4,44.8,516.6,43.8,516.7,42.6z"/>
	<path fill="#000000" d="M668.9,43c0,7.2,0.1,14.5-0.1,21.8c0,0.9-1.7,2.3-2.8,2.6c-12.2,3.9-17.8,11.2-17.8,23.9c0,19,0,38,0,57.4
		c-8.2,0-16,0-23.9,0c-0.2-0.4-0.5-0.6-0.5-0.9c0.2-22-0.7-44,0.9-65.9C626.2,60.2,648.2,41.8,668.9,43z"/>
	<path fill="#000000" d="M682.8,42.6c8.2,0,15.9,0,24.3,0c0,2,0,3.8,0,5.6c0,18-0.1,36,0,53.9c0.1,10.6,6.8,19.4,16.5,21.8
		c9.9,2.6,20.4-1.7,24.9-10.9c1.8-3.6,2.6-7.9,2.7-12c0.3-19.3,0.1-38.6,0.1-58.3c8.1,0,16,0,24.2,0c0.1,0.8,0.4,1.7,0.4,2.7
		c0,19.5,0.2,39-0.1,58.4c-0.4,20.8-15.1,38.9-35.1,43.9c-27.8,7-55.2-11.7-57.6-41.3C681.5,85.5,682.8,64.2,682.8,42.6z"/>
	<polygon fill="#fc8a31" points="818.6,0 818.6,57.3 798.2,57.3 798.2,20 762.1,20 762.1,0 	"/>
</g>
</svg>
