<?xml version="1.0" encoding="utf-8"?>
<!-- Generator: Adobe Illustrator 27.1.1, SVG Export Plug-In . SVG Version: 6.00 Build 0)  -->
<svg version="1.1" id="Layer_1" xmlns="http://www.w3.org/2000/svg" xmlns:xlink="http://www.w3.org/1999/xlink" x="0px" y="0px"
	 viewBox="0 0 80 80" style="enable-background:new 0 0 80 80;" xml:space="preserve">
<style type="text/css">
	.st0{fill:#FFFFFF;}
</style>
<g>
	<path d="M79,25.3c0-0.5-0.2-1.2-0.6-1.6c-2.4-2.9-4.9-5.7-7.3-8.6c-0.3-0.3-0.4-0.8-0.5-1.3c-0.1-1.7,0-3.3,0-5
		c0-2.5-1.8-4.3-4.3-4.3c-17.5,0-35,0-52.5,0c-2.5,0-4.3,1.8-4.3,4.3c0,1.6,0,3.1,0,4.7c0,0.7-0.2,1.2-0.6,1.7
		c-2.1,2.4-4.1,4.9-6.3,7.3c-1.2,1.3-1.7,2.7-1.5,4.3c0,0,0,0.1,0,0.1c0.1,3,2.1,5.7,5,6.6c0.6,0.2,0.8,0.5,0.8,1.1
		c0,12.7,0,25.3,0,38v0.9c-0.3,0-0.4,0-0.6,0c-1.3,0-2.6,0-3.9,0c-0.6,0-1,0.3-0.9,0.9c0,0.6,0.4,0.8,1,0.8c0.2,0,0.4,0,0.6,0h70.7
		c0.2,0,0.4,0,0.6,0c0.6,0,0.9-0.3,0.9-0.9c0-0.6-0.3-0.9-0.9-0.9c-0.4,0-0.7,0-1.1,0V37.9c0-0.3,0-0.5,0-0.8c0-0.6-0.2-1-0.8-1
		c-0.7,0-0.9,0.4-0.9,1c0,0.2,0,0.5,0,0.7v35.8H31.2v-1c0-6.2,0.1-12.5,0-18.7c-0.1-5.9-5.8-10.3-11.5-9.2c-4.7,0.9-8,4.9-8,9.7
		c0,6.1,0,12.2,0,18.3v0.9h-3V34c2.6-0.2,4.6-1.5,6-3.7c1.5,2.3,3.6,3.7,6.3,3.7c2.8,0,4.9-1.3,6.4-3.7c1.5,2.3,3.6,3.7,6.3,3.7
		c2.8,0,4.8-1.4,6.4-3.7c2.7,4.5,9.4,5.2,12.7,0c1.5,2.3,3.5,3.6,6.3,3.6c2.8,0,4.9-1.4,6.4-3.7c0.2,0.2,0.3,0.4,0.4,0.6
		c1.8,2.4,4.2,3.5,7.1,3c3.1-0.5,5.1-2.4,5.8-5.4C79,27.4,79,26.3,79,25.3z M13.4,54.6c0-4.2,2.6-7.4,6.6-8.1
		c4.7-0.9,9.3,2.6,9.4,7.4c0.1,6.5,0,13,0,19.5c0,0,0,0.1-0.1,0.2H13.4v-0.8C13.4,66.7,13.4,60.7,13.4,54.6z M11.4,31.2
		c-1.8,1.3-4.2,1.3-6,0.1C3.3,30,2.7,28,2.9,25.6h10.8C13.9,28,13.3,29.9,11.4,31.2z M14.3,23.5c-0.1,0.2-0.4,0.3-0.6,0.3
		c-3.2,0-6.4,0-9.7,0c0.1-0.2,0.2-0.4,0.3-0.5c2-2.3,3.9-4.6,5.9-6.9c0.2-0.2,0.4-0.4,0.6-0.4c2.5,0,5,0,7.7,0
		C17.1,18.6,15.7,21,14.3,23.5z M24,31.3c-2,1.3-4,1.3-6,0c-2-1.3-2.7-3.3-2.4-5.7h10.8C26.6,28,26,30,24,31.3z M26.7,23.8H16.3
		c0.1-0.2,0.2-0.5,0.3-0.6c1.2-2.2,2.5-4.4,3.8-6.6c0.1-0.2,0.4-0.6,0.7-0.6c2.6,0,5.2,0,7.9,0C28.1,18.7,27.4,21.2,26.7,23.8z
		 M30.6,16.6c0.1-0.3,0.3-0.6,0.5-0.6c2.6,0,5.3,0,8,0v7.8H28.6c0-0.2,0-0.4,0.1-0.6C29.3,21,29.9,18.8,30.6,16.6z M36.9,31.2
		c-1.8,1.3-4.2,1.4-6.1,0.2c-1.9-1.2-2.9-3.5-2.4-5.7H39C39.5,27.6,38.6,29.9,36.9,31.2z M11.2,14.1c0-1.9-0.1-3.8,0-5.6
		c0.1-1.2,1.2-2.1,2.4-2.1c0.2,0,0.4,0,0.6,0h51.7c2.1,0,3,0.9,3,3v4.7H11.2z M49.4,16.4c0.7,2.3,1.4,4.7,2,7.1c0,0.1,0,0.2,0,0.3
		H41V16h1.7c2,0,4,0,5.9,0C48.9,16,49.3,16.2,49.4,16.4z M49.5,31.2c-1.9,1.3-3.9,1.4-5.9,0.2c-2.2-1.3-2.9-3.3-2.6-5.8h10.8
		C52,27.9,51.4,29.9,49.5,31.2z M51.2,16.1c0.3,0,0.4-0.1,0.6-0.1c2.3,0,4.7,0,7,0c0.2,0,0.6,0.1,0.7,0.3c1.4,2.5,2.8,4.9,4.3,7.5
		H53.4C52.7,21.2,51.9,18.7,51.2,16.1z M62.2,31.2c-1.9,1.3-3.9,1.4-5.9,0.2c-2.2-1.3-2.9-3.3-2.6-5.8h10.8
		C64.7,27.9,64.1,29.9,62.2,31.2z M64.8,21.9c-0.8-1.8-1.9-3.4-2.9-5.1c-0.1-0.2-0.2-0.5-0.4-0.8h1.9c1.8,0,3.6,0,5.5,0
		c0.3,0,0.7,0.1,0.8,0.3c2.1,2.4,4.2,4.9,6.5,7.5c-2.8,0-5.4-0.1-8,0C66.4,24,65.5,23.4,64.8,21.9z M74.7,31.3
		c-1.9,1.2-3.9,1.2-5.8,0.1c-2.1-1.3-2.8-3.3-2.6-5.8h10.8C77.4,28,76.7,30,74.7,31.3z"/>
	<path d="M65.1,45c-4.3,0-8.6,0-12.9,0c-4.4,0-8.8,0-13.2,0c-2.1,0-3.2,1.2-3.2,3.2c0,5.9,0,11.8,0,17.7c0,2,1.1,3.2,3.2,3.2
		c8.8,0,17.5,0,26.3,0c2,0,3.2-1.2,3.2-3.2c0-5.9,0-11.7,0-17.6C68.4,46.1,67.3,45,65.1,45z M66.6,65.7c0,1.3-0.3,1.6-1.6,1.6
		c-4.3,0-8.7,0-13,0c-4.3,0-8.6,0-12.9,0c-1.3,0-1.6-0.3-1.6-1.6c0-5.8,0-11.5,0-17.3c0-1.3,0.3-1.6,1.6-1.6c8.7,0,17.3,0,26,0
		c1.2,0,1.5,0.3,1.5,1.6C66.6,54.1,66.6,59.9,66.6,65.7z"/>
	<path class="st0" d="M24.6,62.9c0-0.1,0-0.1,0-0.2C24.6,62.7,24.5,62.8,24.6,62.9z M24.6,62.2c0,0,0-0.1,0-0.2
		C24.6,62.1,24.6,62.1,24.6,62.2c0,0.1,0,0.1,0,0.2C24.6,62.3,24.6,62.2,24.6,62.2z"/>
	<path d="M26.3,63.2c-0.1,0.3-0.6,0.7-0.9,0.7c-0.3,0-0.7-0.4-0.8-0.7c0,0,0,0,0-0.1c0-0.1,0-0.1,0-0.2c0-0.1,0-0.1,0-0.2
		c0-0.1,0-0.2,0-0.3c0-0.1,0-0.1,0-0.2c0,0,0-0.1,0-0.2c0,0,0-0.1,0-0.1c0,0,0-0.1,0-0.1c0-0.2,0-0.4,0.1-0.6
		c0.2-0.3,0.5-0.7,0.8-0.7c0.3,0,0.8,0.4,0.9,0.7C26.4,61.8,26.4,62.5,26.3,63.2z"/>
</g>
</svg>
