<svg xmlns="http://www.w3.org/2000/svg" viewBox="0 0 385 385">
	<path fill="#AEB5BC" d="M192.6,381.2C88.5,381.3,3.8,296.7,3.8,192.6C3.8,88.4,88.4,3.8,192.5,3.8c104.2,0,188.7,84.6,188.7,188.8
		C381.1,296.6,296.7,381.1,192.6,381.2z M192.4,363.2c94.2,0,170.7-76.4,170.8-170.6C363.3,98.4,287,22,192.7,21.8
		c-94.2-0.2-171,76.4-171,170.7C21.8,286.7,98.3,363.2,192.4,363.2z"/>
	<path fill="#AEB5BC" d="M192.3,282.5c-49.6-0.1-89.9-40.4-89.8-90c0-49.8,40.5-90.1,90.4-89.9c49.6,0.2,89.8,40.6,89.6,90.2
		C282.4,242.3,242,282.6,192.3,282.5z"/>
</svg>