<?xml version="1.0" encoding="utf-8"?>
<!-- Generator: Adobe Illustrator 27.1.1, SVG Export Plug-In . SVG Version: 6.00 Build 0)  -->
<svg version="1.1" id="Layer_1" xmlns="http://www.w3.org/2000/svg" xmlns:xlink="http://www.w3.org/1999/xlink" x="0px" y="0px"
	 viewBox="0 0 12 25" style="enable-background:new 0 0 12 25;" xml:space="preserve">
<g>
	<path d="M6,22.5C6,22.4,6,22.4,6,22.5c0.7-0.8,1.4-1.5,2.1-2.2c0.1-0.1,0.1-0.1,0.2-0.1c0.1,0,0.2,0.2,0.1,0.3c0,0,0,0,0,0
		c-0.7,0.8-1.5,1.5-2.2,2.3C6,23,6,23,5.8,22.8c-0.8-0.8-1.5-1.5-2.3-2.3c-0.1-0.1-0.1-0.1-0.1-0.2c0-0.1,0.2-0.2,0.3-0.1
		c0,0,0,0,0.1,0.1C4.6,21,5.3,21.7,6,22.5C6,22.4,6,22.4,6,22.5z"/>
	<path d="M6,24C6,24,6,24,6,24c0.7-0.8,1.4-1.5,2.1-2.2c0.1-0.1,0.1-0.1,0.2-0.1c0.1,0,0.2,0.2,0.1,0.3c0,0,0,0,0,0
		c-0.7,0.8-1.5,1.5-2.2,2.3c-0.1,0.1-0.2,0.1-0.3,0c-0.8-0.8-1.5-1.5-2.3-2.3c-0.1-0.1-0.1-0.1-0.1-0.2c0-0.1,0.2-0.2,0.3-0.1
		c0,0,0,0,0.1,0.1C4.6,22.6,5.3,23.3,6,24C6,24,6,24,6,24z"/>
	<path d="M6,19.2c-3,0-5.4-2.4-5.4-5.4V5.5c0-3,2.4-5.4,5.4-5.4s5.4,2.4,5.4,5.4v8.3C11.4,16.8,9,19.2,6,19.2z M6,0.9
		C3.5,0.9,1.4,3,1.4,5.5v8.3c0,2.5,2.1,4.6,4.6,4.6c2.5,0,4.6-2.1,4.6-4.6V5.5C10.6,3,8.5,0.9,6,0.9z"/>
	<path d="M6,9.9c-0.1,0-0.2-0.1-0.2-0.2V3.6c0-0.1,0.1-0.2,0.2-0.2s0.2,0.1,0.2,0.2v6.1C6.2,9.8,6.1,9.9,6,9.9z"/>
</g>
</svg>
