<svg xmlns="http://www.w3.org/2000/svg" viewBox="0 0 80 80">
	<path d="M70.5,27.2c-0.2-1.3-0.5-2.7-0.9-4C69.4,22.4,68.7,22,68,22c-0.7,0-1.4,0.6-1.5,1.3c0,0.3,0,0.7,0.1,1
		c1,3.7,1.3,7.5,0.8,11.3c-0.7,4.7-2.5,9-5.3,12.8c-6.4,8.6-17.5,12.7-28,10.4c-5.1-1.2-9.6-3.5-13.3-7.3c-6.9-7-9.7-15.5-7.7-25.2
		c2.8-14,15.5-23.3,29.7-22c5.1,0.5,9.7,2.2,13.8,5.3c1.5,1.1,2.8,2.4,4.1,3.7c0.5,0.5,1.1,0.7,1.7,0.5c0.6-0.2,1-0.6,1.1-1.2
		c0.1-0.6-0.1-1.1-0.5-1.6c-9.1-10.2-24.2-13-36.4-7C13.9,10.3,7.1,23.9,9.7,37.7c2.3,12.5,12.5,22.5,25,24.6
		c0.3,0.1,0.4,0.2,0.4,0.5c0,1.6,0,3.2,0,4.8c0,0.1,0,0.2,0,0.4c-0.2,0-0.3,0.1-0.5,0.1c-1.5,0.2-2.7,1.5-2.7,3.1c0,2.1,0,4.2,0,6.3
		c0,0.3,0.1,0.7,0.3,1c0.4,0.6,1.1,0.8,1.8,0.6c0.7-0.2,1.1-0.8,1.1-1.5c0-1.9,0-3.7,0-5.6v-0.6h9.8v0.6c0,1.8,0,3.7,0,5.5
		c0,0.9,0.7,1.6,1.6,1.6c0.9,0,1.6-0.7,1.6-1.7c0-2.1,0-4.1,0-6.2c0-1.4-1-2.6-2.3-3c-0.3-0.1-0.6-0.1-0.9-0.2c0-1.8,0-3.5,0-5.3
		c0-0.3,0.2-0.3,0.4-0.3c7.9-1.4,14.3-5.3,19.2-11.6C69.8,43.7,71.8,35.9,70.5,27.2z M41.6,67.9h-3.2v-5.2h3.2V67.9z"/>
	<path d="M37.6,35.1c0,1.1,0,2.1,0,3.3c0.2,0,0.4,0,0.6,0c2,0,4,0,6,0c0.8,0,1.5,0.6,1.5,1.4c0.1,0.8-0.4,1.6-1.1,1.8
		c-0.2,0.1-0.4,0.1-0.6,0.1c-2.6,0-5.2,0-7.8,0c-1.1,0-1.8-0.6-1.8-1.8c0-4.2,0-8.5,0-12.7c0-1.1,0.7-1.7,1.7-1.7c2.6,0,5.3,0,7.9,0
		c0.9,0,1.5,0.5,1.7,1.3c0.1,0.8-0.3,1.6-1,1.8c-0.3,0.1-0.6,0.1-0.9,0.1c-1.9,0-3.7,0-5.6,0c-0.2,0-0.4,0-0.6,0c0,1.1,0,2.2,0,3.2
		c0.4,0,0.7,0,1.1,0c1.2,0,2.5,0,3.7,0c1,0,1.7,0.7,1.7,1.6c0,0.9-0.7,1.6-1.7,1.6c-1.4,0-2.8,0-4.2,0C38,35.1,37.8,35.1,37.6,35.1z
		"/>
	<path d="M60.3,31c0-3.1-2.5-5.6-5.6-5.7c-3.1,0-5.7,2.5-5.7,5.6c0,0.8,0,1.7,0,2.5c0,0,0,0,0,0c0,0.9,0,1.8,0,2.6
		c0.1,3.1,2.6,5.5,5.8,5.5c3.1,0,5.6-2.6,5.6-5.6C60.3,34.3,60.3,32.7,60.3,31z M57.1,36c0,1.4-1.2,2.4-2.5,2.4
		c-1.4,0-2.4-1.1-2.4-2.5c0-0.8,0-1.6,0-2.4c0-0.8,0-1.6,0-2.4c0-1.4,1-2.4,2.4-2.5c1.3,0,2.5,0.9,2.5,2.3
		C57.1,32.7,57.1,34.3,57.1,36z"/>
	<path d="M23.9,41.6c-0.8,0-1.7,0-2.5,0c-1,0-1.7-0.7-1.6-1.6c0-0.9,0.7-1.6,1.6-1.6c1.6,0,3.2,0,4.8,0c1.2,0,2-1.1,1.6-2.2
		c-0.2-0.6-0.8-1-1.6-1.1c-0.6,0-1.2,0-1.8,0c-2.6-0.1-4.6-2.2-4.7-4.8c0-2.6,2-4.8,4.6-4.9c1.7-0.1,3.5,0,5.2,0
		c0.9,0,1.6,0.7,1.6,1.6c0,0.9-0.7,1.6-1.7,1.6c-1.4,0-2.9,0-4.3,0c-0.2,0-0.4,0-0.6,0c-0.9,0.1-1.6,0.8-1.6,1.6
		c0,0.9,0.7,1.6,1.7,1.6c0.8,0,1.6,0,2.4,0.1c2.5,0.4,4.2,2.6,4,5.2c-0.2,2.4-2.3,4.3-4.7,4.4C25.5,41.6,24.7,41.6,23.9,41.6
		C23.9,41.6,23.9,41.6,23.9,41.6z"/>
	<path d="M9.1,13.2c0,0.3,0,0.6,0,0.9c-0.1,0.9-0.8,1.5-1.6,1.5c-0.8,0-1.5-0.7-1.6-1.5c0-0.6,0-1.3,0-1.9c0-0.8,0.8-1.5,1.6-1.5
		c0.8,0,1.6,0.7,1.6,1.5C9.1,12.6,9.1,12.9,9.1,13.2C9.1,13.2,9.1,13.2,9.1,13.2z"/>
	<path d="M12.4,58.7c0,0.3,0,0.6,0,0.9c-0.1,0.9-0.8,1.6-1.6,1.6c-0.9,0-1.6-0.7-1.6-1.6c0-0.6,0-1.1,0-1.7c0-0.9,0.7-1.6,1.6-1.6
		c0.9,0,1.6,0.6,1.6,1.5C12.4,58.1,12.4,58.4,12.4,58.7C12.4,58.7,12.4,58.7,12.4,58.7z"/>
	<path d="M58.7,70.9c-0.3,0-0.5,0-0.8,0c-0.9,0-1.6-0.7-1.6-1.6c0-0.9,0.6-1.6,1.5-1.6c0.6,0,1.2,0,1.8,0c0.9,0,1.6,0.8,1.6,1.6
		c0,0.9-0.7,1.6-1.7,1.6C59.2,70.9,58.9,70.9,58.7,70.9z"/>
	<path d="M66.8,70.9c-0.3,0-0.6,0-0.8,0c-0.9,0-1.5-0.7-1.6-1.6c0-0.9,0.6-1.6,1.5-1.6c0.6,0,1.3,0,1.9,0c0.9,0.1,1.5,0.8,1.5,1.6
		c0,0.8-0.7,1.6-1.5,1.6C67.4,70.9,67.1,70.9,66.8,70.9z"/>
	<path d="M68.4,9.1c-0.3,0-0.6,0-0.8,0c-0.9,0-1.6-0.7-1.6-1.6c0-0.9,0.7-1.6,1.5-1.6c0.6,0,1.2,0,1.8,0c0.9,0,1.5,0.8,1.5,1.6
		c0,0.9-0.7,1.6-1.5,1.6C69,9.1,68.7,9.1,68.4,9.1z"/>
	<path d="M6.7,61.1c0.3,0,0.6,0,0.9,0c0.9,0,1.5,0.7,1.5,1.6c0,0.9-0.7,1.6-1.5,1.6c-0.6,0-1.2,0-1.8,0c-0.9,0-1.6-0.8-1.6-1.6
		c0-0.9,0.7-1.6,1.6-1.6C6.1,61.1,6.4,61.1,6.7,61.1z"/>
	<path d="M9.1,66.8c0-0.3,0-0.6,0-0.8c0-0.9,0.7-1.5,1.6-1.6c0.9,0,1.6,0.6,1.6,1.5c0,0.6,0,1.3,0,1.9c-0.1,0.8-0.8,1.5-1.6,1.5
		c-0.8,0-1.6-0.7-1.6-1.5C9.1,67.4,9.1,67.1,9.1,66.8z"/>
	<path d="M61.1,73.3c0-0.3,0-0.6,0-0.9c0-0.8,0.7-1.5,1.6-1.5c0.9,0,1.6,0.6,1.6,1.5c0,0.6,0,1.2,0,1.8c0,0.9-0.8,1.5-1.6,1.5
		c-0.9,0-1.6-0.7-1.6-1.5C61.1,73.9,61.1,73.6,61.1,73.3z"/>
	<path d="M70.9,3.4c0-0.3,0-0.6,0-0.8c0-0.9,0.7-1.5,1.6-1.5c0.9,0,1.6,0.6,1.6,1.5c0,0.6,0,1.3,0,1.9c0,0.8-0.8,1.5-1.6,1.5
		c-0.8,0-1.5-0.7-1.6-1.5C70.9,4.1,70.9,3.7,70.9,3.4C70.9,3.4,70.9,3.4,70.9,3.4z"/>
	<path d="M9.1,5.1c0,0.3,0,0.6,0,0.8c0,0.9-0.7,1.6-1.6,1.6C6.6,7.5,5.9,6.8,5.9,6c0-0.6,0-1.2,0-1.8c0-0.8,0.7-1.5,1.6-1.5
		c0.8,0,1.6,0.7,1.6,1.5C9.1,4.4,9.1,4.8,9.1,5.1C9.1,5.1,9.1,5.1,9.1,5.1z"/>
	<path d="M3.4,10.7c-0.3,0-0.6,0-0.9,0C1.7,10.7,1,10,1,9.1c0-0.9,0.7-1.6,1.5-1.6c0.6,0,1.2,0,1.8,0c0.9,0,1.5,0.7,1.6,1.6
		c0,0.9-0.7,1.6-1.6,1.6C4,10.7,3.7,10.7,3.4,10.7C3.4,10.7,3.4,10.7,3.4,10.7z"/>
	<path d="M11.6,10.7c-0.3,0-0.6,0-0.9,0c-0.9,0-1.6-0.7-1.6-1.6c0-0.9,0.7-1.6,1.6-1.6c0.6,0,1.1,0,1.7,0c0.9,0,1.6,0.7,1.6,1.6
		c0,0.9-0.7,1.6-1.6,1.6C12.1,10.7,11.9,10.7,11.6,10.7z"/>
	<path d="M74.1,11.6c0,0.3,0,0.6,0,0.9c0,0.9-0.7,1.5-1.6,1.5c-0.9,0-1.6-0.7-1.6-1.6c0-0.6,0-1.2,0-1.7c0-0.9,0.7-1.5,1.6-1.6
		c0.9,0,1.6,0.6,1.6,1.5C74.1,11,74.1,11.3,74.1,11.6z"/>
	<path d="M76.6,5.9c0.3,0,0.6,0,0.9,0C78.4,6,79,6.7,79,7.5c0,0.8-0.6,1.6-1.5,1.6c-0.6,0-1.3,0-1.9,0c-0.9,0-1.5-0.8-1.5-1.6
		c0-0.8,0.7-1.5,1.5-1.6C75.9,5.9,76.3,5.9,76.6,5.9C76.6,5.9,76.6,5.9,76.6,5.9z"/>
	<path d="M61.1,65.2c0-0.3,0-0.6,0-0.9c0-0.8,0.7-1.5,1.6-1.5c0.9,0,1.6,0.6,1.6,1.5c0,0.6,0,1.2,0,1.8c0,0.9-0.8,1.5-1.6,1.5
		c-0.9,0-1.6-0.7-1.6-1.5C61.1,65.8,61.1,65.5,61.1,65.2C61.1,65.2,61.1,65.2,61.1,65.2z"/>
	<path d="M14.8,61.1c0.3,0,0.6,0,0.9,0c0.8,0,1.5,0.7,1.5,1.6c0,0.9-0.6,1.6-1.5,1.6c-0.6,0-1.3,0-1.9,0c-0.8,0-1.5-0.8-1.5-1.6
		c0-0.9,0.7-1.6,1.5-1.6C14.2,61.1,14.5,61.1,14.8,61.1z"/>
	<path d="M64,17.6c0-0.9,0.7-1.6,1.6-1.6c0.9,0,1.7,0.7,1.7,1.6c0,0.9-0.7,1.6-1.6,1.6C64.7,19.3,64,18.5,64,17.6z"/>
</svg>
