<svg xmlns="http://www.w3.org/2000/svg" viewBox="0 0 16 18">
	<path fill="#AEB5BC" d="M3.3,18c-0.1,0-0.2,0-0.3-0.1c-1.4-0.3-2.4-1.3-2.4-2.8c-0.1-1.4,0.1-2.8,0.6-4.1C1.5,10.2,2,9.4,2.9,9
		C3.4,8.7,4,8.6,4.5,8.6c0.2,0,0.4,0.1,0.5,0.2C5.2,9,5.5,9.2,5.7,9.4c1.5,0.9,3,0.9,4.5,0c0.2-0.1,0.4-0.3,0.6-0.4
		c0.4-0.3,0.8-0.3,1.2-0.2c1.2,0.2,2,0.8,2.5,1.8c0.5,0.9,0.7,1.9,0.8,2.9c0.1,0.5,0.1,1.1,0.1,1.6c0,1.6-1.1,2.7-2.7,2.9h-0.1
		C9.6,18,6.4,18,3.3,18z M8,16.9L8,16.9c1.5,0,3,0,4.5,0c1.2,0,2-0.8,2-2c0-0.5,0-0.9-0.1-1.4c-0.1-0.8-0.3-1.7-0.7-2.4
		c-0.4-0.8-1-1.3-1.9-1.3c-0.1,0-0.2,0-0.2,0.1c-0.2,0.1-0.4,0.3-0.7,0.4c-1.7,1-3.4,1.2-5.2,0.3c-0.4-0.2-0.8-0.5-1.2-0.7
		c-0.1,0-0.1-0.1-0.2-0.1c-0.6,0-1.1,0.2-1.5,0.6c-0.3,0.3-0.6,0.8-0.7,1.2c-0.4,1.1-0.5,2.3-0.5,3.5c0,0.7,0.3,1.2,0.9,1.5
		c0.4,0.2,0.8,0.3,1.3,0.3C5.1,16.9,6.6,16.9,8,16.9z"/>
	<path fill="#AEB5BC" d="M12.3,4.3c0,2.4-1.9,4.3-4.3,4.3S3.7,6.7,3.7,4.3C3.6,1.9,5.6,0,8,0S12.3,1.9,12.3,4.3z M8,7.6
		c1.8,0,3.3-1.5,3.3-3.3S9.8,1,8,1S4.7,2.5,4.7,4.3C4.7,6.2,6.2,7.6,8,7.6z"/>
</svg>
